<svg width="26" height="29" viewBox="0 0 26 29" fill="none" xmlns="http://www.w3.org/2000/svg">
<path d="M15.3153 13.4083C16.1204 14.2573 16.5205 15.2673 16.5205 16.4286C16.5205 17.6679 16.1399 18.6877 15.3788 19.4831C14.6225 20.2735 13.6466 20.6736 12.456 20.6736C11.2704 20.6736 10.2945 20.2784 9.53331 19.4782C8.77213 18.6828 8.39154 17.6631 8.39154 16.4237C8.39154 15.2624 8.79165 14.2573 9.59674 13.4034C10.4018 12.5544 11.3533 12.125 12.456 12.125C13.5588 12.1299 14.5102 12.5544 15.3153 13.4083Z" fill="white"/>
<path d="M3.81986 17.1802H4.05407C5.47396 17.1802 6.70843 18.0731 7.2354 19.3905C7.50865 20.0688 7.90387 20.664 8.43572 21.1764C9.4799 22.1961 10.8364 22.7036 12.5051 22.7036C14.4276 22.7036 15.8962 22.1327 16.9063 20.9958C17.9163 19.8589 18.4189 18.2048 18.4189 16.0384V3.4009C18.4189 1.52236 19.9412 0 21.8198 0H22.1564C24.035 0 25.5574 1.52236 25.5574 3.4009V16.097C25.5574 20.1712 24.4156 23.333 22.1272 25.5922C19.8388 27.8513 16.6623 28.9784 12.5929 28.9784C8.76264 28.9784 5.67889 27.9001 3.34656 25.7434C2.12673 24.6163 1.22893 23.3038 0.648285 21.796C-0.21048 19.5759 1.43874 17.1802 3.81986 17.1802Z" fill="white"/>
</svg>
