<svg width="152" height="139" viewBox="0 0 152 139" fill="none" xmlns="http://www.w3.org/2000/svg">
<path d="M43.1298 106.866C43.1298 106.866 70.7662 112.88 71.8213 83.947C71.8213 83.947 56.281 104.25 39.9795 89.72" fill="#0079FF"/>
<path d="M115.292 86.6225C115.292 86.6225 96.9935 65.0529 78.5742 87.3988C78.5742 87.3988 103.256 80.7139 107.379 102.155" fill="#0079FF"/>
<path d="M68.8288 41.6367C68.8288 41.6367 53.7256 65.5501 80.5557 76.4404C80.5557 76.4404 66.7864 54.8859 86.0197 44.5458" fill="#0079FF"/>
<path d="M75.9965 137.697C107.422 137.697 132.897 112.222 132.897 80.7966C132.897 49.3711 107.422 23.8958 75.9965 23.8958C44.5711 23.8958 19.0957 49.3711 19.0957 80.7966C19.0957 112.222 44.5711 137.697 75.9965 137.697Z" stroke="#0079FF" stroke-width="2" stroke-miterlimit="10"/>
<path d="M128.104 126.581C140.749 126.581 151 116.33 151 103.685C151 91.0402 140.749 80.7893 128.104 80.7893C115.459 80.7893 105.208 91.0402 105.208 103.685C105.208 116.33 115.459 126.581 128.104 126.581Z" fill="white" stroke="#0079FF" stroke-width="2" stroke-miterlimit="10"/>
<path d="M75.9967 46.792C88.6418 46.792 98.8927 36.5411 98.8927 23.896C98.8927 11.2509 88.6418 1 75.9967 1C63.3516 1 53.1007 11.2509 53.1007 23.896C53.1007 36.5411 63.3516 46.792 75.9967 46.792Z" fill="white" stroke="#0079FF" stroke-width="2" stroke-miterlimit="10"/>
<path d="M23.896 126.581C36.5411 126.581 46.792 116.33 46.792 103.685C46.792 91.0402 36.5411 80.7893 23.896 80.7893C11.2509 80.7893 1 91.0402 1 103.685C1 116.33 11.2509 126.581 23.896 126.581Z" fill="white" stroke="#0079FF" stroke-width="2" stroke-miterlimit="10"/>
<path d="M24.1124 101.13C28.3161 101.13 31.7239 97.9479 31.7239 94.0229C31.7239 90.098 28.3161 86.9163 24.1124 86.9163C19.9087 86.9163 16.501 90.098 16.501 94.0229C16.501 97.9479 19.9087 101.13 24.1124 101.13Z" fill="url(#paint0_linear_1_339)"/>
<path d="M11.6719 114.54C11.6719 108.649 17.2414 103.877 24.1072 103.877C30.9729 103.877 36.5424 108.649 36.5424 114.54C36.5424 120.431 30.9729 120.826 24.1072 120.826C17.2414 120.826 11.6719 120.431 11.6719 114.54Z" fill="url(#paint1_linear_1_339)"/>
<path d="M128.103 101.13C132.306 101.13 135.714 97.9481 135.714 94.0232C135.714 90.0983 132.306 86.9165 128.103 86.9165C123.899 86.9165 120.491 90.0983 120.491 94.0232C120.491 97.9481 123.899 101.13 128.103 101.13Z" fill="url(#paint2_linear_1_339)"/>
<path d="M115.668 114.54C115.668 108.649 121.237 103.877 128.103 103.877C134.969 103.877 140.539 108.649 140.539 114.54C140.539 120.431 134.969 120.827 128.103 120.827C121.232 120.832 115.668 120.431 115.668 114.54Z" fill="url(#paint3_linear_1_339)"/>
<path d="M75.9964 21.998C80.2019 21.998 83.611 18.8157 83.611 14.8901C83.611 10.9645 80.2019 7.78223 75.9964 7.78223C71.791 7.78223 68.3818 10.9645 68.3818 14.8901C68.3818 18.8157 71.791 21.998 75.9964 21.998Z" fill="url(#paint4_linear_1_339)"/>
<path d="M63.5615 35.4088C63.5615 29.518 69.1304 24.7446 75.9968 24.7446C82.8632 24.7446 88.4321 29.518 88.4321 35.4088C88.4321 41.2997 82.8632 41.6975 75.9968 41.6975C69.1304 41.6975 63.5615 41.2997 63.5615 35.4088Z" fill="url(#paint5_linear_1_339)"/>
<path d="M75.1818 96.3671C83.6188 96.3671 90.4584 89.5275 90.4584 81.0905C90.4584 72.6535 83.6188 65.814 75.1818 65.814C66.7448 65.814 59.9053 72.6535 59.9053 81.0905C59.9053 89.5275 66.7448 96.3671 75.1818 96.3671Z" fill="white" stroke="#0079FF" stroke-width="2" stroke-miterlimit="10"/>
<path d="M74.301 73.2216H75.878V75.1786C76.2453 75.2293 76.6253 75.3179 77.018 75.4446C77.4107 75.5586 77.797 75.7233 78.177 75.9386L77.531 77.6676C77.189 77.4776 76.7963 77.3193 76.353 77.1926C75.9223 77.0659 75.498 77.0026 75.08 77.0026C74.6367 77.0026 74.2757 77.0976 73.997 77.2876C73.7183 77.4649 73.579 77.7309 73.579 78.0856C73.579 78.4149 73.6993 78.6746 73.94 78.8646C74.1933 79.0546 74.605 79.2446 75.175 79.4346L75.992 79.7006C76.904 80.0046 77.6007 80.4289 78.082 80.9736C78.576 81.5056 78.823 82.1706 78.823 82.9686C78.823 83.7793 78.5507 84.4759 78.006 85.0586C77.4613 85.6413 76.657 86.0023 75.593 86.1416V88.1936H74.035V86.1796C73.465 86.1289 72.9457 86.0276 72.477 85.8756C72.021 85.7109 71.5777 85.4893 71.147 85.2106L71.964 83.5006C72.3947 83.7919 72.838 84.0073 73.294 84.1466C73.75 84.2733 74.1807 84.3366 74.586 84.3366C75.2067 84.3366 75.65 84.2226 75.916 83.9946C76.182 83.7666 76.315 83.4816 76.315 83.1396C76.315 82.8229 76.201 82.5633 75.973 82.3606C75.745 82.1453 75.346 81.9426 74.776 81.7526L73.864 81.4676C73.484 81.3536 73.123 81.2079 72.781 81.0306C72.439 80.8406 72.1413 80.6189 71.888 80.3656C71.6473 80.1123 71.451 79.8146 71.299 79.4726C71.1597 79.1306 71.09 78.7443 71.09 78.3136C71.09 77.8576 71.166 77.4459 71.318 77.0786C71.4827 76.7113 71.7043 76.3946 71.983 76.1286C72.2743 75.8499 72.6163 75.6283 73.009 75.4636C73.4017 75.2989 73.8323 75.2039 74.301 75.1786V73.2216Z" fill="#0079FF"/>
<defs>
<linearGradient id="paint0_linear_1_339" x1="8.87216" y1="83.9207" x2="22.2737" y2="108.346" gradientUnits="userSpaceOnUse">
<stop offset="0.24564" stop-color="#B7C58D"/>
<stop offset="1" stop-color="#0079FF"/>
</linearGradient>
<linearGradient id="paint1_linear_1_339" x1="-0.791787" y1="100.305" x2="12.287" y2="132.962" gradientUnits="userSpaceOnUse">
<stop offset="0.24564" stop-color="#B7C58D"/>
<stop offset="1" stop-color="#0079FF"/>
</linearGradient>
<linearGradient id="paint2_linear_1_339" x1="123.911" y1="84.7624" x2="129.239" y2="102.169" gradientUnits="userSpaceOnUse">
<stop stop-color="#B224EF"/>
<stop offset="1" stop-color="#F6AE5C"/>
</linearGradient>
<linearGradient id="paint3_linear_1_339" x1="121.255" y1="101.308" x2="126.086" y2="122.931" gradientUnits="userSpaceOnUse">
<stop stop-color="#B224EF"/>
<stop offset="1" stop-color="#F6AE5C"/>
</linearGradient>
<linearGradient id="paint4_linear_1_339" x1="55.5736" y1="2.07362" x2="72.217" y2="27.9734" gradientUnits="userSpaceOnUse">
<stop stop-color="#5D54FB"/>
<stop offset="0.489583" stop-color="#0079FF"/>
<stop offset="1" stop-color="#B224EF"/>
</linearGradient>
<linearGradient id="paint5_linear_1_339" x1="42.6446" y1="17.9369" x2="59.4277" y2="53.7022" gradientUnits="userSpaceOnUse">
<stop stop-color="#5D54FB"/>
<stop offset="0.489583" stop-color="#0079FF"/>
<stop offset="1" stop-color="#B224EF"/>
</linearGradient>
</defs>
</svg>
