<svg width="152" height="139" viewBox="0 0 152 139" fill="none" xmlns="http://www.w3.org/2000/svg">
<path d="M85.9454 75.6119C89.0671 75.6119 91.5978 73.0813 91.5978 69.9595C91.5978 66.8378 89.0671 64.3071 85.9454 64.3071C82.8236 64.3071 80.293 66.8378 80.293 69.9595C80.293 73.0813 82.8236 75.6119 85.9454 75.6119Z" fill="#0079FF" stroke="#0079FF" stroke-width="2" stroke-miterlimit="10"/>
<path d="M85.9454 97.5206C89.0671 97.5206 91.5978 94.99 91.5978 91.8682C91.5978 88.7465 89.0671 86.2158 85.9454 86.2158C82.8236 86.2158 80.293 88.7465 80.293 91.8682C80.293 94.99 82.8236 97.5206 85.9454 97.5206Z" fill="#0079FF" stroke="#0079FF" stroke-width="2" stroke-miterlimit="10"/>
<path d="M66.9453 87.1576C70.0671 87.1576 72.5977 84.6269 72.5977 81.5052C72.5977 78.3834 70.0671 75.8528 66.9453 75.8528C63.8236 75.8528 61.2929 78.3834 61.2929 81.5052C61.2929 84.6269 63.8236 87.1576 66.9453 87.1576Z" fill="#0079FF" stroke="#0079FF" stroke-width="2" stroke-miterlimit="10"/>
<path d="M71.9727 78.3024L81.0165 73.0269" stroke="#0079FF" stroke-width="2" stroke-miterlimit="10"/>
<path d="M71.249 84.897L80.2929 90.1725" stroke="#0079FF" stroke-width="2" stroke-miterlimit="10"/>
<path d="M75.9965 137.697C107.422 137.697 132.897 112.222 132.897 80.7966C132.897 49.3711 107.422 23.8958 75.9965 23.8958C44.571 23.8958 19.0957 49.3711 19.0957 80.7966C19.0957 112.222 44.571 137.697 75.9965 137.697Z" stroke="#0079FF" stroke-width="2" stroke-miterlimit="10"/>
<path d="M128.104 126.581C140.749 126.581 151 116.33 151 103.685C151 91.0402 140.749 80.7893 128.104 80.7893C115.459 80.7893 105.208 91.0402 105.208 103.685C105.208 116.33 115.459 126.581 128.104 126.581Z" fill="white" stroke="#0079FF" stroke-width="2" stroke-miterlimit="10"/>
<path d="M75.9967 46.792C88.6418 46.792 98.8927 36.5411 98.8927 23.896C98.8927 11.2509 88.6418 1 75.9967 1C63.3516 1 53.1007 11.2509 53.1007 23.896C53.1007 36.5411 63.3516 46.792 75.9967 46.792Z" fill="white" stroke="#0079FF" stroke-width="2" stroke-miterlimit="10"/>
<path d="M23.896 126.581C36.5411 126.581 46.792 116.33 46.792 103.685C46.792 91.0402 36.5411 80.7893 23.896 80.7893C11.2509 80.7893 0.999977 91.0402 0.999977 103.685C0.999977 116.33 11.2509 126.581 23.896 126.581Z" fill="white" stroke="#0079FF" stroke-width="2" stroke-miterlimit="10"/>
<path d="M24.1124 101.13C28.3161 101.13 31.7238 97.9479 31.7238 94.0229C31.7238 90.098 28.3161 86.9163 24.1124 86.9163C19.9087 86.9163 16.501 90.098 16.501 94.0229C16.501 97.9479 19.9087 101.13 24.1124 101.13Z" fill="url(#paint0_linear_1_358)"/>
<path d="M11.6718 114.54C11.6718 108.649 17.2413 103.877 24.1071 103.877C30.9729 103.877 36.5424 108.649 36.5424 114.54C36.5424 120.431 30.9729 120.826 24.1071 120.826C17.2413 120.826 11.6718 120.431 11.6718 114.54Z" fill="url(#paint1_linear_1_358)"/>
<path d="M128.103 101.13C132.306 101.13 135.714 97.9481 135.714 94.0232C135.714 90.0983 132.306 86.9165 128.103 86.9165C123.899 86.9165 120.491 90.0983 120.491 94.0232C120.491 97.9481 123.899 101.13 128.103 101.13Z" fill="url(#paint2_linear_1_358)"/>
<path d="M115.668 114.54C115.668 108.649 121.237 103.877 128.103 103.877C134.969 103.877 140.539 108.649 140.539 114.54C140.539 120.431 134.969 120.827 128.103 120.827C121.232 120.832 115.668 120.431 115.668 114.54Z" fill="url(#paint3_linear_1_358)"/>
<path d="M75.9964 21.998C80.2018 21.998 83.611 18.8157 83.611 14.8901C83.611 10.9645 80.2018 7.78223 75.9964 7.78223C71.791 7.78223 68.3818 10.9645 68.3818 14.8901C68.3818 18.8157 71.791 21.998 75.9964 21.998Z" fill="url(#paint4_linear_1_358)"/>
<path d="M63.5615 35.4088C63.5615 29.518 69.1304 24.7446 75.9968 24.7446C82.8631 24.7446 88.432 29.518 88.432 35.4088C88.432 41.2997 82.8631 41.6975 75.9968 41.6975C69.1304 41.6975 63.5615 41.2997 63.5615 35.4088Z" fill="url(#paint5_linear_1_358)"/>
<defs>
<linearGradient id="paint0_linear_1_358" x1="8.87214" y1="83.9207" x2="22.2737" y2="108.346" gradientUnits="userSpaceOnUse">
<stop offset="0.24564" stop-color="#B7C58D"/>
<stop offset="1" stop-color="#0079FF"/>
</linearGradient>
<linearGradient id="paint1_linear_1_358" x1="-0.791832" y1="100.305" x2="12.287" y2="132.962" gradientUnits="userSpaceOnUse">
<stop offset="0.24564" stop-color="#B7C58D"/>
<stop offset="1" stop-color="#0079FF"/>
</linearGradient>
<linearGradient id="paint2_linear_1_358" x1="123.911" y1="84.7624" x2="129.239" y2="102.169" gradientUnits="userSpaceOnUse">
<stop stop-color="#B224EF"/>
<stop offset="1" stop-color="#F6AE5C"/>
</linearGradient>
<linearGradient id="paint3_linear_1_358" x1="121.255" y1="101.308" x2="126.086" y2="122.931" gradientUnits="userSpaceOnUse">
<stop stop-color="#B224EF"/>
<stop offset="1" stop-color="#F6AE5C"/>
</linearGradient>
<linearGradient id="paint4_linear_1_358" x1="55.5736" y1="2.07362" x2="72.217" y2="27.9734" gradientUnits="userSpaceOnUse">
<stop stop-color="#5D54FB"/>
<stop offset="0.489583" stop-color="#0079FF"/>
<stop offset="1" stop-color="#B224EF"/>
</linearGradient>
<linearGradient id="paint5_linear_1_358" x1="42.6446" y1="17.9369" x2="59.4277" y2="53.7022" gradientUnits="userSpaceOnUse">
<stop stop-color="#5D54FB"/>
<stop offset="0.489583" stop-color="#0079FF"/>
<stop offset="1" stop-color="#B224EF"/>
</linearGradient>
</defs>
</svg>
