<svg width="152" height="133" viewBox="0 0 152 133" fill="none" xmlns="http://www.w3.org/2000/svg">
<path d="M58.5148 31.753L6.41746 93.6293C-6.10156 108.497 4.46736 131.208 23.9042 131.208H128.099C147.536 131.208 158.098 108.497 145.586 93.6293L93.4884 31.753C84.35 20.9065 67.6461 20.9065 58.5148 31.753Z" fill="white" stroke="#0079FF" stroke-width="2" stroke-miterlimit="10"/>
<path d="M76.3494 59.1754C92.4141 59.1754 105.437 46.1524 105.437 30.0877C105.437 14.023 92.4141 1 76.3494 1C60.2847 1 47.2617 14.023 47.2617 30.0877C47.2617 46.1524 60.2847 59.1754 76.3494 59.1754Z" fill="white" stroke="#0079FF" stroke-width="2" stroke-miterlimit="10"/>
<path d="M75.8016 73.5445C81.7369 73.5445 86.5484 68.733 86.5484 62.7976C86.5484 56.8623 81.7369 52.0508 75.8016 52.0508C69.8663 52.0508 65.0547 56.8623 65.0547 62.7976C65.0547 68.733 69.8663 73.5445 75.8016 73.5445Z" fill="white" stroke="#0079FF" stroke-width="2" stroke-miterlimit="10"/>
<path d="M75.0522 55.3842H76.6292V57.3412C76.9965 57.3919 77.3765 57.4806 77.7692 57.6072C78.1619 57.7212 78.5482 57.8859 78.9282 58.1012L78.2822 59.8302C77.9402 59.6402 77.5475 59.4819 77.1042 59.3552C76.6735 59.2286 76.2492 59.1652 75.8312 59.1652C75.3879 59.1652 75.0269 59.2602 74.7482 59.4502C74.4695 59.6276 74.3302 59.8936 74.3302 60.2482C74.3302 60.5776 74.4505 60.8372 74.6912 61.0272C74.9445 61.2172 75.3562 61.4072 75.9262 61.5972L76.7432 61.8632C77.6552 62.1672 78.3519 62.5916 78.8332 63.1362C79.3272 63.6682 79.5742 64.3332 79.5742 65.1312C79.5742 65.9419 79.3019 66.6386 78.7572 67.2212C78.2125 67.8039 77.4082 68.1649 76.3442 68.3042V70.3562H74.7862V68.3422C74.2162 68.2916 73.6969 68.1902 73.2282 68.0382C72.7722 67.8736 72.3289 67.6519 71.8982 67.3732L72.7152 65.6632C73.1459 65.9546 73.5892 66.1699 74.0452 66.3092C74.5012 66.4359 74.9319 66.4992 75.3372 66.4992C75.9579 66.4992 76.4012 66.3852 76.6672 66.1572C76.9332 65.9292 77.0662 65.6442 77.0662 65.3022C77.0662 64.9856 76.9522 64.7259 76.7242 64.5232C76.4962 64.3079 76.0972 64.1052 75.5272 63.9152L74.6152 63.6302C74.2352 63.5162 73.8742 63.3706 73.5322 63.1932C73.1902 63.0032 72.8925 62.7816 72.6392 62.5282C72.3985 62.2749 72.2022 61.9772 72.0502 61.6352C71.9109 61.2932 71.8412 60.9069 71.8412 60.4762C71.8412 60.0202 71.9172 59.6086 72.0692 59.2412C72.2339 58.8739 72.4555 58.5572 72.7342 58.2912C73.0255 58.0126 73.3675 57.7909 73.7602 57.6262C74.1529 57.4616 74.5835 57.3666 75.0522 57.3412V55.3842Z" fill="#0079FF"/>
<path d="M38.983 97.5914C43.5542 97.5914 47.26 94.1314 47.26 89.8633C47.26 85.5952 43.5542 82.1353 38.983 82.1353C34.4118 82.1353 30.7061 85.5952 30.7061 89.8633C30.7061 94.1314 34.4118 97.5914 38.983 97.5914Z" fill="url(#paint0_linear_1_412)"/>
<path d="M25.4541 112.174C25.4541 105.768 31.5106 100.579 38.9767 100.579C46.4428 100.579 52.4992 105.768 52.4992 112.174C52.4992 118.58 46.4428 119.01 38.9767 119.01C31.5106 119.01 25.4541 118.58 25.4541 112.174Z" fill="url(#paint1_linear_1_412)"/>
<path d="M113.451 97.5914C118.022 97.5914 121.728 94.1314 121.728 89.8633C121.728 85.5952 118.022 82.1353 113.451 82.1353C108.88 82.1353 105.174 85.5952 105.174 89.8633C105.174 94.1314 108.88 97.5914 113.451 97.5914Z" fill="url(#paint2_linear_1_412)"/>
<path d="M99.9287 112.174C99.9287 105.768 105.985 100.579 113.451 100.579C120.917 100.579 126.974 105.768 126.974 112.174C126.974 118.58 120.917 119.01 113.451 119.01C105.979 119.017 99.9287 118.58 99.9287 112.174Z" fill="url(#paint3_linear_1_412)"/>
<path d="M75.7306 97.594C80.3037 97.594 84.011 94.1334 84.011 89.8646C84.011 85.5958 80.3037 82.1353 75.7306 82.1353C71.1575 82.1353 67.4502 85.5958 67.4502 89.8646C67.4502 94.1334 71.1575 97.594 75.7306 97.594Z" fill="url(#paint4_linear_1_412)"/>
<path d="M62.208 112.177C62.208 105.771 68.2638 100.58 75.7306 100.58C83.1973 100.58 89.2531 105.771 89.2531 112.177C89.2531 118.583 83.1973 119.015 75.7306 119.015C68.2638 119.015 62.208 118.583 62.208 112.177Z" fill="url(#paint5_linear_1_412)"/>
<path d="M75.5697 27.4693C80.1462 27.4693 83.8562 24.0064 83.8562 19.7346C83.8562 15.4629 80.1462 12 75.5697 12C70.9932 12 67.2832 15.4629 67.2832 19.7346C67.2832 24.0064 70.9932 27.4693 75.5697 27.4693Z" fill="url(#paint6_linear_1_412)"/>
<path d="M62.045 42.0559C62.045 35.6457 68.0985 30.4582 75.57 30.4582C83.0414 30.4582 89.095 35.6542 89.095 42.0559C89.095 48.4576 83.0414 48.8991 75.57 48.8991C68.0985 48.8991 62.045 48.4576 62.045 42.0559Z" fill="url(#paint7_linear_1_412)"/>
<defs>
<linearGradient id="paint0_linear_1_412" x1="22.4103" y1="78.8778" x2="36.9835" y2="105.438" gradientUnits="userSpaceOnUse">
<stop offset="0.24564" stop-color="#B7C58D"/>
<stop offset="1" stop-color="#0079FF"/>
</linearGradient>
<linearGradient id="paint1_linear_1_412" x1="11.9007" y1="96.6944" x2="26.1231" y2="132.207" gradientUnits="userSpaceOnUse">
<stop offset="0.24564" stop-color="#B7C58D"/>
<stop offset="1" stop-color="#0079FF"/>
</linearGradient>
<linearGradient id="paint2_linear_1_412" x1="108.892" y1="79.7928" x2="114.686" y2="98.7214" gradientUnits="userSpaceOnUse">
<stop stop-color="#B224EF"/>
<stop offset="1" stop-color="#F6AE5C"/>
</linearGradient>
<linearGradient id="paint3_linear_1_412" x1="106.004" y1="97.7856" x2="111.257" y2="121.299" gradientUnits="userSpaceOnUse">
<stop stop-color="#B224EF"/>
<stop offset="1" stop-color="#F6AE5C"/>
</linearGradient>
<linearGradient id="paint4_linear_1_412" x1="53.5222" y1="75.9275" x2="71.6208" y2="104.092" gradientUnits="userSpaceOnUse">
<stop stop-color="#5D54FB"/>
<stop offset="0.489583" stop-color="#0079FF"/>
<stop offset="1" stop-color="#B224EF"/>
</linearGradient>
<linearGradient id="paint5_linear_1_412" x1="39.4623" y1="93.1774" x2="57.7128" y2="132.07" gradientUnits="userSpaceOnUse">
<stop stop-color="#5D54FB"/>
<stop offset="0.489583" stop-color="#0079FF"/>
<stop offset="1" stop-color="#B224EF"/>
</linearGradient>
<linearGradient id="paint6_linear_1_412" x1="68.4277" y1="13.9577" x2="78.6581" y2="33.9654" gradientUnits="userSpaceOnUse">
<stop stop-color="#0079FF"/>
<stop offset="1" stop-color="#00FFFF"/>
</linearGradient>
<linearGradient id="paint7_linear_1_412" x1="63.913" y1="32.7919" x2="73.7738" y2="59.1963" gradientUnits="userSpaceOnUse">
<stop stop-color="#0079FF"/>
<stop offset="1" stop-color="#00FFFF"/>
</linearGradient>
</defs>
</svg>
