<svg width="152" height="96" viewBox="0 0 152 96" fill="none" xmlns="http://www.w3.org/2000/svg">
<path d="M53.916 9.37866H7.88787C4.08178 9.37866 0.999969 12.4605 0.999969 16.2666V70.5034C0.999969 74.3095 4.08178 77.3913 7.88787 77.3913H24.5253C24.5608 77.7108 24.6673 78.0374 24.8449 78.3428L28.7788 85.0887C29.7232 86.7148 32.0736 86.7148 33.018 85.0887L36.9519 78.3428C37.1294 78.0374 37.236 77.7108 37.2715 77.3913H53.9089C57.715 77.3913 60.7968 74.3095 60.7968 70.5034V16.2666C60.8039 12.4605 57.7221 9.37866 53.916 9.37866Z" fill="white" stroke="#0079FF" stroke-width="2" stroke-miterlimit="10"/>
<path d="M30.9092 39.0888C36.1133 39.0888 40.3321 35.1497 40.3321 30.2907C40.3321 25.4317 36.1133 21.4927 30.9092 21.4927C25.705 21.4927 21.4863 25.4317 21.4863 30.2907C21.4863 35.1497 25.705 39.0888 30.9092 39.0888Z" fill="url(#paint0_linear_1_317)"/>
<path d="M15.5067 55.6901C15.5067 48.3975 22.4018 42.4895 30.9016 42.4895C39.4014 42.4895 46.2963 48.3975 46.2963 55.6901C46.2963 62.9828 39.4014 63.4727 30.9016 63.4727C22.4018 63.4727 15.5067 62.9828 15.5067 55.6901Z" fill="url(#paint1_linear_1_317)"/>
<path d="M144.119 9.37866H98.091C94.2849 9.37866 91.2031 12.4605 91.2031 16.2666V70.5034C91.2031 74.3095 94.2849 77.3913 98.091 77.3913H114.728C114.764 77.7108 114.87 78.0374 115.048 78.3428L118.982 85.0887C119.926 86.7148 122.277 86.7148 123.221 85.0887L127.155 78.3428C127.333 78.0374 127.439 77.7108 127.475 77.3913H144.112C147.918 77.3913 151 74.3095 151 70.5034V16.2666C151.007 12.4605 147.918 9.37866 144.119 9.37866Z" fill="white" stroke="#0079FF" stroke-width="2" stroke-miterlimit="10"/>
<path d="M121.105 39.0888C126.309 39.0888 130.527 35.1497 130.527 30.2907C130.527 25.4317 126.309 21.4927 121.105 21.4927C115.9 21.4927 111.682 25.4317 111.682 30.2907C111.682 35.1497 115.9 39.0888 121.105 39.0888Z" fill="url(#paint2_linear_1_317)"/>
<path d="M105.71 55.6901C105.71 48.3975 112.605 42.4895 121.105 42.4895C129.604 42.4895 136.499 48.3975 136.499 55.6901C136.499 62.9828 129.604 63.4727 121.105 63.4727C112.598 63.4798 105.71 62.9828 105.71 55.6901Z" fill="url(#paint3_linear_1_317)"/>
<path d="M105.334 1H46.6808C42.8747 1 39.7929 4.0818 39.7929 7.88789V76.4828C39.7929 80.2889 42.8747 83.3707 46.6808 83.3707H68.0475C68.0972 83.4985 68.154 83.6192 68.225 83.7399L73.8915 93.454C74.836 95.0801 77.1864 95.0801 78.1308 93.454L83.7973 83.7399C83.8683 83.6192 83.9252 83.4914 83.9749 83.3707H105.342C109.148 83.3707 112.229 80.2889 112.229 76.4828V7.88789C112.222 4.0818 109.133 1 105.334 1Z" fill="white" stroke="#0079FF" stroke-width="2" stroke-miterlimit="10"/>
<path d="M76.0081 36.9876C82.3142 36.9876 87.4263 32.2156 87.4263 26.3291C87.4263 20.4426 82.3142 15.6707 76.0081 15.6707C69.7019 15.6707 64.5898 20.4426 64.5898 26.3291C64.5898 32.2156 69.7019 36.9876 76.0081 36.9876Z" fill="url(#paint4_linear_1_317)"/>
<path d="M57.3612 57.0972C57.3612 48.2637 65.7119 41.106 76.0083 41.106C86.3046 41.106 94.6553 48.2637 94.6553 57.0972C94.6553 65.9308 86.3046 66.5272 76.0083 66.5272C65.7119 66.5272 57.3612 65.9308 57.3612 57.0972Z" fill="url(#paint5_linear_1_317)"/>
<defs>
<linearGradient id="paint0_linear_1_317" x1="12.0418" y1="17.7842" x2="28.6328" y2="48.0222" gradientUnits="userSpaceOnUse">
<stop offset="0.24564" stop-color="#B7C58D"/>
<stop offset="1" stop-color="#0079FF"/>
</linearGradient>
<linearGradient id="paint1_linear_1_317" x1="0.0768103" y1="38.0671" x2="16.2683" y2="78.4968" gradientUnits="userSpaceOnUse">
<stop offset="0.24564" stop-color="#B7C58D"/>
<stop offset="1" stop-color="#0079FF"/>
</linearGradient>
<linearGradient id="paint2_linear_1_317" x1="115.915" y1="18.8259" x2="122.511" y2="40.3753" gradientUnits="userSpaceOnUse">
<stop stop-color="#B224EF"/>
<stop offset="1" stop-color="#F6AE5C"/>
</linearGradient>
<linearGradient id="paint3_linear_1_317" x1="112.626" y1="39.3094" x2="118.607" y2="66.0783" gradientUnits="userSpaceOnUse">
<stop stop-color="#B224EF"/>
<stop offset="1" stop-color="#F6AE5C"/>
</linearGradient>
<linearGradient id="paint4_linear_1_317" x1="45.3836" y1="7.11046" x2="70.3408" y2="45.9478" gradientUnits="userSpaceOnUse">
<stop stop-color="#5D54FB"/>
<stop offset="0.489583" stop-color="#0079FF"/>
<stop offset="1" stop-color="#B224EF"/>
</linearGradient>
<linearGradient id="paint5_linear_1_317" x1="25.9958" y1="30.8976" x2="51.1625" y2="84.5286" gradientUnits="userSpaceOnUse">
<stop stop-color="#5D54FB"/>
<stop offset="0.489583" stop-color="#0079FF"/>
<stop offset="1" stop-color="#B224EF"/>
</linearGradient>
</defs>
</svg>
