<svg width="124" height="114" viewBox="0 0 124 114" fill="none" xmlns="http://www.w3.org/2000/svg">
<path d="M8.56836 64.9823V17.2227C8.56836 10.2049 14.2032 4.52295 21.1628 4.52295H109.497C116.456 4.52295 122.091 10.2049 122.091 17.2227V64.9823C122.091 72.0001 116.456 77.682 109.497 77.682H21.1628C14.2128 77.682 8.56836 72.0001 8.56836 64.9823Z" fill="white" stroke="#0079FF" stroke-width="2" stroke-miterlimit="10"/>
<path d="M13.6143 60.0989V22.1051C13.6143 15.1771 19.2553 9.56787 26.2225 9.56787H104.438C111.405 9.56787 117.046 15.1771 117.046 22.1051V60.0989C117.046 67.0268 111.405 72.6361 104.438 72.6361H26.2225C19.2553 72.6361 13.6143 67.0268 13.6143 60.0989Z" fill="white" stroke="#0079FF" stroke-width="2" stroke-miterlimit="10"/>
<path d="M1.34362 101.87L6.56068 84.1344C7.67931 80.3257 11.3824 77.6816 15.5965 77.6816H110.189C116.38 77.6816 120.874 83.2085 119.225 88.8116L114.008 106.547C112.889 110.356 109.186 113 104.972 113H10.3795C4.18842 112.99 -0.305398 107.463 1.34362 101.87Z" fill="white" stroke="#0079FF" stroke-width="2" stroke-miterlimit="10"/>
<path d="M9.29271 99.8065L13.7368 86.7503C14.6896 83.9465 17.844 82 21.4338 82H102.01C107.284 82 111.112 86.0687 109.707 90.1935L105.263 103.25C104.31 106.054 101.156 108 97.5662 108H16.9897C11.716 107.993 7.88802 103.924 9.29271 99.8065Z" fill="white" stroke="#0079FF" stroke-miterlimit="10"/>
<path d="M56.5001 5.02664C56.5001 5.02664 51.6607 2.07663 47.2828 2.00147C46.0263 1.98268 44.7012 2.1424 43.3858 2.59335C38.8312 4.15291 34.3452 9.18861 32.7747 22.1255L28.7501 22.1818C28.7501 22.1818 31.2434 4.81996 36.6324 2.77186L46.576 2.00147L49.5896 5.01727H51.6251L56.5001 5.02664Z" fill="url(#paint0_linear_1_404)" stroke="#0079FF" stroke-width="2" stroke-miterlimit="10"/>
<path d="M31.2725 46.148C36.8456 46.148 41.3635 40.7831 41.3635 34.1651C41.3635 27.5471 36.8456 22.1821 31.2725 22.1821C25.6995 22.1821 21.1816 27.5471 21.1816 34.1651C21.1816 40.7831 25.6995 46.148 31.2725 46.148Z" fill="white" stroke="#0079FF" stroke-width="2" stroke-miterlimit="10"/>
<path d="M30.6419 43.6253C35.8666 43.6253 40.1021 38.8251 40.1021 32.9037C40.1021 26.9823 35.8666 22.1821 30.6419 22.1821C25.4171 22.1821 21.1816 26.9823 21.1816 32.9037C21.1816 38.8251 25.4171 43.6253 30.6419 43.6253Z" fill="url(#paint1_linear_1_404)" stroke="#0079FF" stroke-width="2" stroke-miterlimit="10"/>
<defs>
<linearGradient id="paint0_linear_1_404" x1="31.0114" y1="2" x2="35.9837" y2="21.8363" gradientUnits="userSpaceOnUse">
<stop stop-color="#0378FF"/>
<stop offset="1" stop-color="#9A2FF1"/>
</linearGradient>
<linearGradient id="paint1_linear_1_404" x1="21.2896" y1="26.8554" x2="35.4926" y2="40.5511" gradientUnits="userSpaceOnUse">
<stop stop-color="#9DBA9E"/>
<stop offset="1" stop-color="#308DE2"/>
</linearGradient>
</defs>
</svg>
