<svg width="152" height="157" viewBox="0 0 152 157" fill="none" xmlns="http://www.w3.org/2000/svg">
<path d="M19.4454 148.816V31.3557C19.4454 27.575 22.5104 24.51 26.2911 24.51H143.751C147.532 24.51 150.597 27.575 150.597 31.3557V148.816C150.597 152.596 147.532 155.661 143.751 155.661H26.2911C22.5104 155.661 19.4454 152.596 19.4454 148.816Z" fill="#0079FF" stroke="#0079FF" stroke-miterlimit="10"/>
<path d="M19.4454 148.816V96.9313C19.4454 93.1506 22.5104 90.0856 26.2911 90.0856H78.1754C81.9561 90.0856 85.0211 93.1506 85.0211 96.9313V148.816C85.0211 152.596 81.9561 155.661 78.1754 155.661H26.2911C22.5104 155.661 19.4454 152.596 19.4454 148.816Z" fill="white" stroke="#0079FF" stroke-width="2" stroke-miterlimit="10"/>
<path d="M85.4248 83.2495V31.3652C85.4248 27.5845 88.4898 24.5195 92.2705 24.5195H144.155C147.936 24.5195 151 27.5845 151 31.3652V83.2495C151 87.0302 147.936 90.0952 144.155 90.0952H92.2705C88.4898 90.0952 85.4248 87.0302 85.4248 83.2495Z" fill="white" stroke="#0079FF" stroke-width="2" stroke-miterlimit="10"/>
<path d="M85.0215 148.815V96.9312C85.0215 93.1504 88.0865 90.0854 91.8672 90.0854H143.751C147.532 90.0854 150.597 93.1504 150.597 96.9312V148.815C150.597 152.596 147.532 155.661 143.751 155.661H91.8672C88.0865 155.661 85.0215 152.596 85.0215 148.815Z" fill="white" stroke="#0079FF" stroke-width="2" stroke-miterlimit="10"/>
<path d="M1.00002 59.73V7.84573C1.00002 4.06499 4.06499 1 7.84573 1H59.73C63.5107 1 66.5757 4.06499 66.5757 7.84573V59.73C66.5757 63.5107 63.5107 66.5757 59.73 66.5757H7.84573C4.06499 66.5757 1.00002 63.5107 1.00002 59.73Z" fill="white" stroke="#0079FF" stroke-width="2" stroke-miterlimit="10"/>
<path d="M33.7883 30.5669C38.7347 30.5669 42.7446 26.8241 42.7446 22.2071C42.7446 17.59 38.7347 13.8472 33.7883 13.8472C28.8419 13.8472 24.832 17.59 24.832 22.2071C24.832 26.8241 28.8419 30.5669 33.7883 30.5669Z" fill="url(#paint0_linear_1_386)"/>
<path d="M19.1699 46.3324C19.1699 39.4041 25.7128 33.7972 33.7881 33.7972C41.8635 33.7972 48.4064 39.4133 48.4064 46.3324C48.4064 53.2515 41.8635 53.7287 33.7881 53.7287C25.7128 53.7287 19.1699 53.2515 19.1699 46.3324Z" fill="url(#paint1_linear_1_386)"/>
<path d="M51.9367 120.953C56.745 120.953 60.6428 117.313 60.6428 112.824C60.6428 108.334 56.745 104.695 51.9367 104.695C47.1285 104.695 43.2307 108.334 43.2307 112.824C43.2307 117.313 47.1285 120.953 51.9367 120.953Z" fill="url(#paint2_linear_1_386)"/>
<path d="M37.7064 136.291C37.7064 129.553 44.0769 124.095 51.9301 124.095C59.7833 124.095 66.1538 129.553 66.1538 136.291C66.1538 143.029 59.7833 143.482 51.9301 143.482C44.0769 143.482 37.7064 143.029 37.7064 136.291Z" fill="url(#paint3_linear_1_386)"/>
<path d="M117.084 53.9639C121.892 53.9639 125.79 50.3245 125.79 45.8352C125.79 41.3458 121.892 37.7064 117.084 37.7064C112.276 37.7064 108.378 41.3458 108.378 45.8352C108.378 50.3245 112.276 53.9639 117.084 53.9639Z" fill="url(#paint4_linear_1_386)"/>
<path d="M102.86 69.3026C102.86 62.5648 109.231 57.1062 117.084 57.1062C124.937 57.1062 131.308 62.5648 131.308 69.3026C131.308 76.0405 124.937 76.4932 117.084 76.4932C109.224 76.4997 102.86 76.0405 102.86 69.3026Z" fill="url(#paint5_linear_1_386)"/>
<path d="M117.084 120.955C121.894 120.955 125.793 117.315 125.793 112.825C125.793 108.335 121.894 104.695 117.084 104.695C112.273 104.695 108.374 108.335 108.374 112.825C108.374 117.315 112.273 120.955 117.084 120.955Z" fill="url(#paint6_linear_1_386)"/>
<path d="M102.86 136.294C102.86 129.556 109.23 124.096 117.084 124.096C124.938 124.096 131.308 129.556 131.308 136.294C131.308 143.032 124.938 143.487 117.084 143.487C109.23 143.487 102.86 143.032 102.86 136.294Z" fill="url(#paint7_linear_1_386)"/>
<defs>
<linearGradient id="paint0_linear_1_386" x1="26.069" y1="15.9631" x2="37.1263" y2="37.5881" gradientUnits="userSpaceOnUse">
<stop stop-color="#0079FF"/>
<stop offset="1" stop-color="#00FFFF"/>
</linearGradient>
<linearGradient id="paint1_linear_1_386" x1="21.1889" y1="36.3196" x2="31.8468" y2="64.8583" gradientUnits="userSpaceOnUse">
<stop stop-color="#0079FF"/>
<stop offset="1" stop-color="#00FFFF"/>
</linearGradient>
<linearGradient id="paint2_linear_1_386" x1="34.5047" y1="101.269" x2="49.8336" y2="129.206" gradientUnits="userSpaceOnUse">
<stop offset="0.24564" stop-color="#B7C58D"/>
<stop offset="1" stop-color="#0079FF"/>
</linearGradient>
<linearGradient id="paint3_linear_1_386" x1="23.4503" y1="120.009" x2="38.4101" y2="157.363" gradientUnits="userSpaceOnUse">
<stop offset="0.24564" stop-color="#B7C58D"/>
<stop offset="1" stop-color="#0079FF"/>
</linearGradient>
<linearGradient id="paint4_linear_1_386" x1="112.289" y1="35.2425" x2="118.383" y2="55.1526" gradientUnits="userSpaceOnUse">
<stop stop-color="#B224EF"/>
<stop offset="1" stop-color="#F6AE5C"/>
</linearGradient>
<linearGradient id="paint5_linear_1_386" x1="109.251" y1="54.168" x2="114.776" y2="78.9006" gradientUnits="userSpaceOnUse">
<stop stop-color="#B224EF"/>
<stop offset="1" stop-color="#F6AE5C"/>
</linearGradient>
<linearGradient id="paint6_linear_1_386" x1="93.7237" y1="98.1653" x2="112.761" y2="127.79" gradientUnits="userSpaceOnUse">
<stop stop-color="#5D54FB"/>
<stop offset="0.489583" stop-color="#0079FF"/>
<stop offset="1" stop-color="#B224EF"/>
</linearGradient>
<linearGradient id="paint7_linear_1_386" x1="78.9352" y1="116.31" x2="98.1319" y2="157.219" gradientUnits="userSpaceOnUse">
<stop stop-color="#5D54FB"/>
<stop offset="0.489583" stop-color="#0079FF"/>
<stop offset="1" stop-color="#B224EF"/>
</linearGradient>
</defs>
</svg>
